# xmcd
#
# Track frame offsets:
#	200
#	11549
#	23948
#	38483
#	55401
#	64914
#	77852
#	91747
#	106075
#	118975
#
# Disc length: 1747 seconds
#
# Revision: 1
# Processed by: cddbd v1.4PL0 Copyright (c) Steve Scherf et al.
# Submitted via: audiograbber 1.81.02
#
DISCID=7806d10a
DTITLE=Merle Haggard - Today I Started Loving You Again
DYEAR=1996
DGENRE=Country
TTITLE0=(My Friends are Gonna Be) Strangers
TTITLE1=The Bottle Let Me Down
TTITLE2=I'm a Lonesome Fugitive
TTITLE3=Today I Started Loving You Again
TTITLE4=Legend of Bonnie and Clyde
TTITLE5=Swinging Doors
TTITLE6=I Threw Away the Rose
TTITLE7=Branded Man
TTITLE8=Sing Me Back Home
TTITLE9=I Take a Lot of Pride in What I Am
EXTD=
EXTT0=
EXTT1=
EXTT2=
EXTT3=
EXTT4=
EXTT5=
EXTT6=
EXTT7=
EXTT8=
EXTT9=
PLAYORDER=
